<svg width="21" height="22" viewBox="0 0 21 22" fill="none" xmlns="http://www.w3.org/2000/svg">
<path fill-rule="evenodd" clip-rule="evenodd" d="M9.37454 0.666992C7.90618 0.667117 6.45915 1.01839 5.15415 1.69149C3.84916 2.3646 2.72406 3.34003 1.87271 4.53639C1.02137 5.73276 0.46847 7.11537 0.260143 8.56887C0.0518162 10.0224 0.194104 11.5046 0.675135 12.892C1.15617 14.2793 1.96199 15.5315 3.02538 16.544C4.08877 17.5566 5.37889 18.3002 6.7881 18.7127C8.19731 19.1253 9.68475 19.1949 11.1263 18.9156C12.5679 18.6364 13.9218 18.0165 15.075 17.1077L19.0314 21.064C19.2357 21.2613 19.5093 21.3705 19.7934 21.3681C20.0774 21.3656 20.3492 21.2517 20.55 21.0508C20.7509 20.8499 20.8648 20.5782 20.8673 20.2942C20.8697 20.0101 20.7605 19.7365 20.5632 19.5322L16.6069 15.5758C17.6772 14.218 18.3436 12.5863 18.5299 10.8674C18.7162 9.14846 18.4147 7.41185 17.6601 5.85626C16.9055 4.30067 15.7282 2.98896 14.2629 2.07124C12.7976 1.15352 11.1035 0.666876 9.37454 0.666992ZM2.33288 9.87533C2.33288 8.00776 3.07476 6.21668 4.39533 4.89611C5.7159 3.57555 7.50698 2.83366 9.37454 2.83366C11.2421 2.83366 13.0332 3.57555 14.3538 4.89611C15.6743 6.21668 16.4162 8.00776 16.4162 9.87533C16.4162 11.7429 15.6743 13.534 14.3538 14.8545C13.0332 16.1751 11.2421 16.917 9.37454 16.917C7.50698 16.917 5.7159 16.1751 4.39533 14.8545C3.07476 13.534 2.33288 11.7429 2.33288 9.87533Z" fill="black"/>
</svg>
